<?xml version="1.0" encoding="UTF-8"?>
<svg width="46px" height="46px" viewBox="0 0 46 46" version="1.1" xmlns="http://www.w3.org/2000/svg" xmlns:xlink="http://www.w3.org/1999/xlink">
    <!-- Generator: Sketch 42 (36781) - http://www.bohemiancoding.com/sketch -->
    <title>View</title>
    <desc>Created with Sketch.</desc>
    <defs></defs>
    <g id="Symbols" stroke="none" stroke-width="1" fill="none" fill-rule="evenodd">
        <g id="Icons/46x46/Dark/View-3" fill-rule="nonzero" fill="#B7C4CB">
            <path d="M4,12.0092465 L4,7.99075354 C4,5.78588273 5.7855766,4 7.99075354,4 L12.0092465,4 C14.2141173,4 16,5.7855766 16,7.99075354 L16,12.0092465 C16,14.2141173 14.2144234,16 12.0092465,16 L7.99075354,16 C5.78588273,16 4,14.2144234 4,12.0092465 Z M4,38.0092465 L4,33.9907535 C4,31.7858827 5.7855766,30 7.99075354,30 L12.0092465,30 C14.2141173,30 16,31.7855766 16,33.9907535 L16,38.0092465 C16,40.2141173 14.2144234,42 12.0092465,42 L7.99075354,42 C5.78588273,42 4,40.2144234 4,38.0092465 Z M7.99075354,0 L12.0092465,0 C16.4224178,0 20,3.57559919 20,7.99075354 L20,12.0092465 C20,16.4224178 16.4244008,20 12.0092465,20 L7.99075354,20 C3.57758222,20 0,16.4244008 0,12.0092465 L0,7.99075354 C0,3.57758222 3.57559919,0 7.99075354,0 Z M7.99075354,26 L12.0092465,26 C16.4224178,26 20,29.5755992 20,33.9907535 L20,38.0092465 C20,42.4224178 16.4244008,46 12.0092465,46 L7.99075354,46 C3.57758222,46 0,42.4244008 0,38.0092465 L0,33.9907535 C0,29.5775822 3.57559919,26 7.99075354,26 Z M30,12.0092465 L30,7.99075354 C30,5.78588273 31.7855766,4 33.9907535,4 L38.0092465,4 C40.2141173,4 42,5.7855766 42,7.99075354 L42,12.0092465 C42,14.2141173 40.2144234,16 38.0092465,16 L33.9907535,16 C31.7858827,16 30,14.2144234 30,12.0092465 Z M30,38.0092465 L30,33.9907535 C30,31.7858827 31.7855766,30 33.9907535,30 L38.0092465,30 C40.2141173,30 42,31.7855766 42,33.9907535 L42,38.0092465 C42,40.2141173 40.2144234,42 38.0092465,42 L33.9907535,42 C31.7858827,42 30,40.2144234 30,38.0092465 Z M33.9907535,0 L38.0092465,0 C42.4224178,0 46,3.57559919 46,7.99075354 L46,12.0092465 C46,16.4224178 42.4244008,20 38.0092465,20 L33.9907535,20 C29.5775822,20 26,16.4244008 26,12.0092465 L26,7.99075354 C26,3.57758222 29.5755992,0 33.9907535,0 Z M33.9907535,26 L38.0092465,26 C42.4224178,26 46,29.5755992 46,33.9907535 L46,38.0092465 C46,42.4224178 42.4244008,46 38.0092465,46 L33.9907535,46 C29.5775822,46 26,42.4244008 26,38.0092465 L26,33.9907535 C26,29.5775822 29.5755992,26 33.9907535,26 Z" id="View"></path>
        </g>
    </g>
</svg>