<?xml version="1.0" encoding="UTF-8"?>
<svg width="36px" height="46px" viewBox="0 0 36 46" version="1.1" xmlns="http://www.w3.org/2000/svg" xmlns:xlink="http://www.w3.org/1999/xlink">
    <!-- Generator: Sketch 42 (36781) - http://www.bohemiancoding.com/sketch -->
    <title>Pin</title>
    <desc>Created with Sketch.</desc>
    <defs></defs>
    <g id="Symbols" stroke="none" stroke-width="1" fill="none" fill-rule="evenodd">
        <g id="Icons/46x46/Dark/Pin" transform="translate(-5.000000, 0.000000)" fill-rule="nonzero" fill="#B7C4CB">
            <path d="M33.3440508,36.8613006 C29.5273193,41.8982296 25.0743088,46 23,46 C20.9256912,46 16.4726807,41.8982296 12.6559492,36.8613006 C7.93144569,30.6263877 5,24.0399312 5,18 C5,8.32943655 13.1874633,0 23,0 C32.8125367,0 41,8.32943655 41,18 C41,24.0399312 38.0685543,30.6263877 33.3440508,36.8613006 Z M23.3604497,42.0433454 C23.3267717,42.0270818 23.2384042,42 23,42 C22.7615958,42 22.6732283,42.0270818 22.6395503,42.0433454 C22.7495912,41.9902049 22.9179451,41.8889596 23.1265444,41.7451525 C23.6278026,41.3995881 24.2717917,40.8718897 24.9887425,40.2114898 C26.6423709,38.6882946 28.4789708,36.6586208 30.1559492,34.4455175 C34.4025425,28.8413012 37,23.005259 37,18 C37,10.5233295 30.5878591,4 23,4 C15.4121409,4 9,10.5233295 9,18 C9,23.005259 11.5974575,28.8413012 15.8440508,34.4455175 C17.5210292,36.6586208 19.3576291,38.6882946 21.0112575,40.2114898 C21.7282083,40.8718897 22.3721974,41.3995881 22.8734556,41.7451525 C23.0820549,41.8889596 23.2504088,41.9902049 23.3604497,42.0433454 Z M31,18 C31,22.418278 27.418278,26 23,26 C18.581722,26 15,22.418278 15,18 C15,13.581722 18.581722,10 23,10 C27.418278,10 31,13.581722 31,18 Z M19,18 C19,20.209139 20.790861,22 23,22 C25.209139,22 27,20.209139 27,18 C27,15.790861 25.209139,14 23,14 C20.790861,14 19,15.790861 19,18 Z" id="Pin"></path>
        </g>
    </g>
</svg>