<?xml version="1.0" encoding="UTF-8"?>
<svg width="46px" height="46px" viewBox="0 0 46 46" version="1.1" xmlns="http://www.w3.org/2000/svg" xmlns:xlink="http://www.w3.org/1999/xlink">
    <!-- Generator: Sketch 42 (36781) - http://www.bohemiancoding.com/sketch -->
    <title>Star</title>
    <desc>Created with Sketch.</desc>
    <defs></defs>
    <g id="Symbols" stroke="none" stroke-width="1" fill="none" fill-rule="evenodd">
        <g id="Icons/46x46/Dark/Star" fill-rule="nonzero" fill="#B7C4CB">
            <path d="M21.0682932,35.4902473 C22.2700409,34.8278282 23.7273248,34.8278282 24.9290726,35.4902473 L36.8202929,42.0448433 C36.8321889,42.0514005 36.746386,42.0227251 36.5337668,42.0052159 C36.0231261,41.9631646 35.4206212,42.1069943 34.8739373,42.4928307 C34.3267276,42.8790383 33.9886381,43.3996939 33.856789,43.896708 C33.8014073,44.105473 33.7996518,44.1993333 33.7981331,44.1900942 L31.4950149,30.1784775 C31.2880717,28.9194849 31.6937086,27.6372419 32.5870233,26.7265726 L42.2543653,16.8714199 C41.5131588,17.627026 42.3134495,20.0219919 43.3575372,20.1802035 L30.0900163,18.169763 C28.7710458,17.9698981 27.6384823,17.1254088 27.0701908,15.9180477 L21.08654,3.20551098 C21.0803514,3.19236291 21.1330037,3.2661948 21.2977392,3.408075 C21.7012567,3.75560866 22.297774,4.00106768 22.9968516,4.0014772 C23.6966491,4.00188715 24.2944641,3.75654056 24.698972,3.40848402 C24.8642667,3.26625713 24.9170833,3.19221652 24.9108257,3.20551098 L18.9271749,15.9180477 C18.3588834,17.1254088 17.2263199,17.9698981 15.9073495,18.169763 L2.63982858,20.1802035 C3.68650628,20.0215994 4.48908633,17.6320002 3.74300048,16.8714199 L13.4103425,26.7265726 C14.3036571,27.6372419 14.709294,28.9194849 14.5023508,30.1784775 L12.1992326,44.1900942 C12.1984652,44.1947632 12.1965174,44.0968563 12.1400189,43.8855912 C12.0074403,43.3898396 11.669749,42.8718639 11.125568,42.4880601 C10.5822228,42.1048457 9.98289542,41.9609523 9.47379652,42.0019899 C9.25882257,42.0193186 9.16930198,42.0491267 9.17707282,42.0448433 L21.0682932,35.4902473 Z M11.1074625,45.5495067 C9.17294216,46.6158396 7.89569855,45.7099296 8.25223645,43.5408389 L10.5553546,29.5292222 L0.888012649,19.6740695 C-0.656899865,18.0991434 -0.131564635,16.5530318 2.0407622,16.223857 L15.3082831,14.2134165 L21.2919339,1.50087975 C22.2345453,-0.501740848 23.7641834,-0.498845129 24.7054318,1.50087975 L30.6890827,14.2134165 L43.9566036,16.223857 C46.1381621,16.5544307 46.6544358,18.09897 45.1093531,19.6740695 L35.4420111,29.5292222 L37.7451293,43.5408389 C38.1027518,45.7165284 36.8318897,46.619955 34.8899032,45.5495067 L22.9986829,38.9949107 L11.1074625,45.5495067 Z" id="Star"></path>
        </g>
    </g>
</svg>