<?xml version="1.0" encoding="UTF-8"?>
<svg width="46px" height="46px" viewBox="0 0 46 46" version="1.1" xmlns="http://www.w3.org/2000/svg" xmlns:xlink="http://www.w3.org/1999/xlink">
    <!-- Generator: Sketch 42 (36781) - http://www.bohemiancoding.com/sketch -->
    <title>Share social</title>
    <desc>Created with Sketch.</desc>
    <defs></defs>
    <g id="Symbols" stroke="none" stroke-width="1" fill="none" fill-rule="evenodd">
        <g id="Icons/46x46/Dark/Share-social" fill-rule="nonzero" fill="#B7C4CB">
            <path d="M46,10 C46,4.4771525 41.5228475,0 36,0 C30.4771525,0 26,4.4771525 26,10 C26,15.5228475 30.4771525,20 36,20 C41.5228475,20 46,15.5228475 46,10 Z M30,10 C30,6.6862915 32.6862915,4 36,4 C39.3137085,4 42,6.6862915 42,10 C42,13.3137085 39.3137085,16 36,16 C32.6862915,16 30,13.3137085 30,10 Z M46,36 C46,30.4771525 41.5228475,26 36,26 C30.4771525,26 26,30.4771525 26,36 C26,41.5228475 30.4771525,46 36,46 C41.5228475,46 46,41.5228475 46,36 Z M30,36 C30,32.6862915 32.6862915,30 36,30 C39.3137085,30 42,32.6862915 42,36 C42,39.3137085 39.3137085,42 36,42 C32.6862915,42 30,39.3137085 30,36 Z M20,23 C20,17.4771525 15.5228475,13 10,13 C4.4771525,13 0,17.4771525 0,23 C0,28.5228475 4.4771525,33 10,33 C15.5228475,33 20,28.5228475 20,23 Z M4,23 C4,19.6862915 6.6862915,17 10,17 C13.3137085,17 16,19.6862915 16,23 C16,26.3137085 13.3137085,29 10,29 C6.6862915,29 4,26.3137085 4,23 Z M29.4577043,15.2557911 C30.4274009,14.7268657 30.7847166,13.5119924 30.2557911,12.5422957 C29.7268657,11.5725991 28.5119924,11.2152834 27.5422957,11.7442089 L16.5422957,17.7442089 C15.5725991,18.2731343 15.2152834,19.4880076 15.7442089,20.4577043 C16.2731343,21.4274009 17.4880076,21.7847166 18.4577043,21.2557911 L29.4577043,15.2557911 Z M27.5422957,34.2557911 C28.5119924,34.7847166 29.7268657,34.4274009 30.2557911,33.4577043 C30.7847166,32.4880076 30.4274009,31.2731343 29.4577043,30.7442089 L18.4577043,24.7442089 C17.4880076,24.2152834 16.2731343,24.5725991 15.7442089,25.5422957 C15.2152834,26.5119924 15.5725991,27.7268657 16.5422957,28.2557911 L27.5422957,34.2557911 Z" id="Share-social"></path>
        </g>
    </g>
</svg>