<?xml version="1.0" encoding="UTF-8"?>
<svg width="46px" height="46px" viewBox="0 0 46 46" version="1.1" xmlns="http://www.w3.org/2000/svg" xmlns:xlink="http://www.w3.org/1999/xlink">
    <!-- Generator: Sketch 42 (36781) - http://www.bohemiancoding.com/sketch -->
    <title>View</title>
    <desc>Created with Sketch.</desc>
    <defs></defs>
    <g id="Symbols" stroke="none" stroke-width="1" fill="none" fill-rule="evenodd">
        <g id="Icons/46x46/Dark/View-2" fill-rule="nonzero" fill="#B7C4CB">
            <path d="M4,12.0092465 L4,7.99075354 C4,5.79145598 5.79478467,4 7.9994481,4 L38.0005519,4 C40.2111983,4 42,5.78655113 42,7.99075354 L42,12.0092465 C42,14.208544 40.2052153,16 38.0005519,16 L7.9994481,16 C5.78880167,16 4,14.2134489 4,12.0092465 Z M4,38.0092465 L4,33.9907535 C4,31.791456 5.79478467,30 7.9994481,30 L38.0005519,30 C40.2111983,30 42,31.7865511 42,33.9907535 L42,38.0092465 C42,40.208544 40.2052153,42 38.0005519,42 L7.9994481,42 C5.78880167,42 4,40.2134489 4,38.0092465 Z M7.9994481,0 L38.0005519,0 C42.4185251,0 46,3.57559919 46,7.99075354 L46,12.0092465 C46,16.4224178 42.4096173,20 38.0005519,20 L7.9994481,20 C3.58147491,20 0,16.4244008 0,12.0092465 L0,7.99075354 C0,3.57758222 3.59038272,0 7.9994481,0 Z M7.9994481,26 L38.0005519,26 C42.4185251,26 46,29.5755992 46,33.9907535 L46,38.0092465 C46,42.4224178 42.4096173,46 38.0005519,46 L7.9994481,46 C3.58147491,46 0,42.4244008 0,38.0092465 L0,33.9907535 C0,29.5775822 3.59038272,26 7.9994481,26 Z" id="View"></path>
        </g>
    </g>
</svg>