<?xml version="1.0" encoding="UTF-8"?>
<svg width="46px" height="46px" viewBox="0 0 46 46" version="1.1" xmlns="http://www.w3.org/2000/svg" xmlns:xlink="http://www.w3.org/1999/xlink">
    <!-- Generator: Sketch 42 (36781) - http://www.bohemiancoding.com/sketch -->
    <title>Cart</title>
    <desc>Created with Sketch.</desc>
    <defs></defs>
    <g id="Symbols" stroke="none" stroke-width="1" fill="none" fill-rule="evenodd">
        <g id="Icons/46x46/Dark/Cart" fill-rule="nonzero" fill="#B7C4CB">
            <path d="M14.4288132,5.08496296 L14.4543359,5.19779056 C13.8797388,2.26614405 11.0403293,0 7.99882315,0 L1.99970579,0 C0.895298777,0 0,0.895411297 0,1.99995711 C0,3.10450292 0.895298777,3.99991422 1.99970579,3.99991422 L7.99882315,3.99991422 C9.15292346,3.99991422 10.3278129,4.93759816 10.529617,5.96722134 C10.5370351,6.0050688 10.5455462,6.04269374 10.5551398,6.08004895 L11.5611774,9.99733926 C11.8359282,11.0671591 12.9258092,11.7116618 13.9954945,11.4368764 C15.0651799,11.162091 15.7096016,10.0720731 15.4348508,9.00225327 L14.4288132,5.08496296 Z M33.9949984,40.4991314 C33.9949984,43.5366324 36.45707,45.9990135 39.4941893,45.9990135 C42.5313086,45.9990135 44.9933802,43.5366324 44.9933802,40.4991314 C44.9933802,37.4616305 42.5313086,34.9992494 39.4941893,34.9992494 C36.45707,34.9992494 33.9949984,37.4616305 33.9949984,40.4991314 Z M40.9939686,40.4991314 C40.9939686,41.3275408 40.3224945,41.9990993 39.4941893,41.9990993 C38.665884,41.9990993 37.9944099,41.3275408 37.9944099,40.4991314 C37.9944099,39.6707221 38.665884,38.9991636 39.4941893,38.9991636 C40.3224945,38.9991636 40.9939686,39.6707221 40.9939686,40.4991314 Z M9.99852893,40.4991314 C9.99852893,43.5366324 12.4606006,45.9990135 15.4977198,45.9990135 C18.5348391,45.9990135 20.9969108,43.5366324 20.9969108,40.4991314 C20.9969108,37.4616305 18.5348391,34.9992494 15.4977198,34.9992494 C12.4606006,34.9992494 9.99852893,37.4616305 9.99852893,40.4991314 Z M16.9974992,40.4991314 C16.9974992,41.3275408 16.3260251,41.9990993 15.4977198,41.9990993 C14.6694146,41.9990993 13.9979405,41.3275408 13.9979405,40.4991314 C13.9979405,39.6707221 14.6694146,38.9991636 15.4977198,38.9991636 C16.3260251,38.9991636 16.9974992,39.6707221 16.9974992,40.4991314 Z M36.851255,24.6145779 C36.2855181,25.8660897 34.4921324,26.999421 33.0665153,26.999421 L20.0183936,26.999421 C19.8426817,26.999421 19.5494269,26.7739328 19.5104537,26.6110785 L15.9979894,12 L40.5934143,12 C41.9193211,12 42.2901047,12.5387747 41.7839376,13.6213175 L36.851255,24.6145779 Z M40.5934143,8 L13.4980141,8 C12.2113706,8 11.2595567,9.17212978 11.5498816,10.3990658 L15.6141887,27.5751529 C16.0732105,29.5150158 17.9819386,30.9993352 20.0183936,30.9993352 L33.0665153,30.9993352 C36.0799123,30.9993352 39.312248,28.9334592 40.5175254,26.236848 L45.4400043,15.1411782 C47.1448416,11.454175 44.7943807,8 40.5934143,8 Z" id="Cart"></path>
        </g>
    </g>
</svg>