<?xml version="1.0" encoding="UTF-8"?>
<svg width="26px" height="46px" viewBox="0 0 26 46" version="1.1" xmlns="http://www.w3.org/2000/svg" xmlns:xlink="http://www.w3.org/1999/xlink">
    <!-- Generator: Sketch 42 (36781) - http://www.bohemiancoding.com/sketch -->
    <title>Payment</title>
    <desc>Created with Sketch.</desc>
    <defs></defs>
    <g id="Symbols" stroke="none" stroke-width="1" fill="none" fill-rule="evenodd">
        <g id="Icons/46x46/Dark/Payment" transform="translate(-10.000000, 0.000000)" fill="#B7C5CB">
            <path d="M21,37.9186873 L21,24.9259644 C14.180542,24.4016313 10,21.0779425 10,14.5 C10,7.92205755 14.180542,4.59836872 21,4.07403562 L21,2.0061411 C21,0.898179965 21.8877296,0 23,0 C24.1045695,0 25,0.898241717 25,2.0061411 L25,4.07403562 C31.819458,4.59836872 36,7.92205755 36,14.5 C36,15.6045695 35.1045695,16.5 34,16.5 C32.8954305,16.5 32,15.6045695 32,14.5 C32,10.4798664 29.7001594,8.49214424 25,8.08131275 L25,21.0740356 C31.819458,21.5983687 36,24.9220575 36,31.5 C36,38.0779425 31.819458,41.4016313 25,41.9259644 L25,43.9938589 C25,45.10182 24.1122704,46 23,46 C21.8954305,46 21,45.1017583 21,43.9938589 L21,41.9259644 C14.180542,41.4016313 10,38.0779425 10,31.5 C10,30.3954305 10.8954305,29.5 12,29.5 C13.1045695,29.5 14,30.3954305 14,31.5 C14,35.5201336 16.2998406,37.5078558 21,37.9186873 Z M25,37.9186873 C29.7001594,37.5078558 32,35.5201336 32,31.5 C32,27.4798664 29.7001594,25.4921442 25,25.0813127 L25,37.9186873 Z M21,20.9186873 L21,8.08131275 C16.2998406,8.49214424 14,10.4798664 14,14.5 C14,18.5201336 16.2998406,20.5078558 21,20.9186873 Z" id="Payment"></path>
        </g>
    </g>
</svg>