<?xml version="1.0" encoding="UTF-8"?>
<svg width="40px" height="32px" viewBox="0 0 40 32" version="1.1" xmlns="http://www.w3.org/2000/svg" xmlns:xlink="http://www.w3.org/1999/xlink">
    <!-- Generator: Sketch 40.1 (33804) - http://www.bohemiancoding.com/sketch -->
    <title>settings</title>
    <desc>Created with Sketch.</desc>
    <defs></defs>
    <g id="Page-1" stroke="none" stroke-width="1" fill="none" fill-rule="evenodd">
        <g id="Category---detail-2" transform="translate(-33.000000, -163.000000)">
            <g id="settings" transform="translate(31.000000, 157.000000)">
                <rect id="base" x="0" y="0" width="44" height="44"></rect>
                <path d="M22,12 L42,12 L42,8 L22,8 L22,12 Z M22,36 L42,36 L42,31.999 L22,31.999 L22,36 Z M38,24 L42,24 L42,20 L38,20 L38,24 Z M30,26 C32.209,26 34,24.209 34,22 C34,19.791 32.209,18 30,18 C28.523,18 27.248,18.809 26.555,20 L2,20 L2,24 L26.555,24 C27.248,25.191 28.523,26 30,26 Z M14,14 C16.209,14 18,12.209 18,10 C18,7.791 16.209,6 14,6 C12.523,6 11.248,6.809 10.555,8 L2,8 L2,12 L10.555,12 C11.248,13.191 12.523,14 14,14 Z M14,30 C12.523,30 11.248,30.809 10.555,32 L2,32 L2,36 L10.555,36 C11.248,37.191 12.523,38 14,38 C16.209,38 18,36.209 18,34 C18,31.791 16.209,30 14,30 Z" id="icon" fill="#000000"></path>
            </g>
        </g>
    </g>
</svg>