<?xml version="1.0" encoding="UTF-8"?>
<svg width="46px" height="42px" viewBox="0 0 46 42" version="1.1" xmlns="http://www.w3.org/2000/svg" xmlns:xlink="http://www.w3.org/1999/xlink">
    <!-- Generator: Sketch 42 (36781) - http://www.bohemiancoding.com/sketch -->
    <title>Like</title>
    <desc>Created with Sketch.</desc>
    <defs></defs>
    <g id="Symbols" stroke="none" stroke-width="1" fill="none" fill-rule="evenodd">
        <g id="Icons/46x46/Dark/Like" transform="translate(0.000000, -2.000000)" fill-rule="nonzero" fill="#B7C4CB">
            <path d="M32,6 C37.7654749,6 42,9.78878562 42,18 C42,22.4962031 38.3531276,27.7060207 32.1984173,32.9814868 C29.9680261,34.8932506 27.5701177,36.674554 25.1718496,38.2733994 C24.332684,38.8328432 23.5545071,39.3288241 22.858036,39.7552349 C22.4450827,40.0080635 22.1547617,40.1794911 22.0077221,40.2635137 L23.9922779,40.2635137 C23.8810219,40.1989624 23.8810219,40.1989624 23.7810661,40.1401252 C23.597851,40.031941 23.383956,39.9033933 23.141964,39.7552349 C22.4454929,39.3288241 21.667316,38.8328432 20.8281504,38.2733994 C18.4298823,36.674554 16.0319739,34.8932506 13.8015827,32.9814868 C7.64687235,27.7060207 4,22.4962031 4,18 C4,9.78878562 8.23452511,6 14,6 C17.1381544,6 20.2956598,8.42885026 21.059715,11.4850713 C21.5646912,13.5049762 24.4353088,13.5049762 24.940285,11.4850713 C25.7043402,8.42885026 28.8618456,6 32,6 Z M24.940285,10.5149287 C23.7281498,5.66638783 18.9618456,2 14,2 C6.11841607,2 0,7.47437227 0,18 C4.44370237e-16,24.0037969 4.22812765,30.0439793 11.1984173,36.0185132 C13.5617761,38.0442494 16.0857427,39.919196 18.6093496,41.6016006 C19.4928402,42.1905943 20.3142727,42.7141447 21.0533485,43.1666401 C21.3137979,43.3260989 21.5459478,43.4656176 21.7472542,43.5844842 C21.8600669,43.6508912 21.8600669,43.6508912 21.9354873,43.6947879 C22.6225875,44.0878379 23.3774125,44.0878379 23.9922779,43.7364863 C24.1733633,43.6330089 24.4982767,43.4411553 24.9466515,43.1666401 C25.6857273,42.7141447 26.5071598,42.1905943 27.3906504,41.6016006 C29.9142573,39.919196 32.4382239,38.0442494 34.8015827,36.0185132 C41.7718724,30.0439793 46,24.0037969 46,18 C46,7.47437227 39.8815839,2 32,2 C27.0381544,2 22.2718502,5.66638783 21.059715,10.5149287 L24.940285,10.5149287 Z" id="Like"></path>
        </g>
    </g>
</svg>